<svg xmlns="http://www.w3.org/2000/svg" viewBox="0 0 192 128" width="192" height="128" role="img" aria-label="월간 학습 계획 썸네일">
  <defs>
    <linearGradient id="mp-bg" x1="0" y1="0" x2="0" y2="1">
      <stop offset="0" stop-color="#FCEEE5"/>
      <stop offset="1" stop-color="#F8F7F2"/>
    </linearGradient>
  </defs>
  <rect width="192" height="128" fill="url(#mp-bg)"/>
  <rect x="46" y="24" width="100" height="84" rx="9" fill="#FFFFFF" stroke="#E7E0D4"/>
  <rect x="46" y="24" width="100" height="22" rx="9" fill="#F2733E"/>
  <rect x="46" y="38" width="100" height="8" fill="#F2733E"/>
  <rect x="62" y="18" width="6" height="13" rx="3" fill="#56524B"/>
  <rect x="124" y="18" width="6" height="13" rx="3" fill="#56524B"/>
  <g fill="#E2D9CC">
    <rect x="58" y="56" width="13" height="9" rx="2.5"/><rect x="77" y="56" width="13" height="9" rx="2.5"/><rect x="96" y="56" width="13" height="9" rx="2.5"/><rect x="115" y="56" width="13" height="9" rx="2.5"/>
    <rect x="58" y="71" width="13" height="9" rx="2.5"/><rect x="96" y="71" width="13" height="9" rx="2.5"/><rect x="115" y="71" width="13" height="9" rx="2.5"/>
    <rect x="58" y="86" width="13" height="9" rx="2.5"/><rect x="77" y="86" width="13" height="9" rx="2.5"/><rect x="115" y="86" width="13" height="9" rx="2.5"/>
  </g>
  <rect x="77" y="71" width="13" height="9" rx="2.5" fill="#FBE6D9"/>
  <rect x="96" y="86" width="13" height="9" rx="2.5" fill="#F2733E"/>
</svg>
