<svg xmlns="http://www.w3.org/2000/svg" viewBox="0 0 192 128" width="192" height="128" role="img" aria-label="관찰 기록 양식 썸네일">
  <defs>
    <linearGradient id="ob-bg" x1="0" y1="0" x2="0" y2="1">
      <stop offset="0" stop-color="#FBEEE7"/>
      <stop offset="1" stop-color="#F8F7F2"/>
    </linearGradient>
  </defs>
  <rect width="192" height="128" fill="url(#ob-bg)"/>
  <rect x="52" y="22" width="76" height="86" rx="8" fill="#F4EDE3" stroke="#E7E0D4"/>
  <rect x="80" y="18" width="20" height="11" rx="4" fill="#56524B"/>
  <g fill="#F2733E">
    <circle cx="66" cy="46" r="4"/>
    <circle cx="66" cy="62" r="4"/>
    <circle cx="66" cy="78" r="4"/>
  </g>
  <g stroke="#FFFFFF" stroke-width="1.6" stroke-linecap="round" stroke-linejoin="round" fill="none">
    <path d="M63.5 46l1.8 1.8 3-3.6"/>
    <path d="M63.5 62l1.8 1.8 3-3.6"/>
    <path d="M63.5 78l1.8 1.8 3-3.6"/>
  </g>
  <g fill="#D9D2C6">
    <rect x="76" y="43" width="42" height="5" rx="2.5"/>
    <rect x="76" y="59" width="42" height="5" rx="2.5"/>
    <rect x="76" y="75" width="30" height="5" rx="2.5"/>
  </g>
  <!-- magnifier -->
  <circle cx="122" cy="86" r="17" fill="#FFFFFF" stroke="#F2733E" stroke-width="3.4"/>
  <circle cx="122" cy="86" r="7" fill="none" stroke="#F2733E" stroke-width="2.4"/>
  <path d="M134 98l9 9" stroke="#F2733E" stroke-width="4.4" stroke-linecap="round"/>
</svg>
