<svg xmlns="http://www.w3.org/2000/svg" viewBox="0 0 192 128" width="192" height="128" role="img" aria-label="동화 삽화 썸네일">
  <defs>
    <linearGradient id="sb-sky" x1="0" y1="0" x2="0" y2="1">
      <stop offset="0" stop-color="#FCE3D2"/>
      <stop offset="1" stop-color="#FDF3EA"/>
    </linearGradient>
    <clipPath id="sb-frame"><rect x="34" y="20" width="124" height="88" rx="10"/></clipPath>
  </defs>
  <rect width="192" height="128" fill="#F8F7F2"/>
  <g clip-path="url(#sb-frame)">
    <rect x="34" y="20" width="124" height="88" fill="url(#sb-sky)"/>
    <circle cx="128" cy="46" r="14" fill="#FFC324"/>
    <path d="M34 92c20-16 40-16 62-4s48 6 62-6v26H34z" fill="#E7C9A6"/>
    <path d="M34 102c24-12 46-10 66 0s40 8 58-2v18H34z" fill="#CDB089"/>
    <rect x="64" y="64" width="6" height="30" rx="2" fill="#7A5A3C"/>
    <circle cx="67" cy="60" r="16" fill="#F2733E"/>
    <circle cx="56" cy="68" r="11" fill="#E5602B"/>
    <circle cx="79" cy="68" r="11" fill="#E5602B"/>
  </g>
  <rect x="34" y="20" width="124" height="88" rx="10" fill="none" stroke="#E7E0D4" stroke-width="2"/>
</svg>
